<svg xmlns="http://www.w3.org/2000/svg" viewBox="0 0 1841.53 578.35"><defs><style>.cls-1{fill:#040202;}.cls-2{fill:#150807;}.cls-3{fill:#da1116;}.cls-4{fill:#d81116;}.cls-5{fill:#da1317;}.cls-6{fill:#1d1d1b;}</style></defs><g id="Layer_2" data-name="Layer 2"><g id="Layer_1-2" data-name="Layer 1"><path class="cls-1" d="M1428.44,287.2v281c0,6.61.07,6.39-6.5,4.32-4-1.25-8.32-1.28-12.39-1.89-7.53-1.11-14.78-3.26-22.11-4.87-10.8-2.38-21.54-5.2-32.27-8-10.44-2.68-20.92-5.22-31.3-8.07-6.09-1.68-12.54-2.35-18.31-5.31-2.38-1.22-5.3-.84-7.93-1.39-7-1.45-13.32-4.88-20.43-6.2-6.56-1.22-13.13-3.22-19.65-5-6.33-1.72-12.82-3.11-19.22-4.72-7.31-1.84-14.66-3.53-22-5.4-6.35-1.63-12.81-3.08-19.21-4.65-7.39-1.8-14.84-3.3-22.2-5.3-6.43-1.75-13-3.16-19.57-4.69-7-1.62-13.83-3.65-20.77-5.37-3.29-.81-6.62-1.52-9.91-2.28-8-1.86-15.89-4.2-23.89-5.84-7.09-1.45-14-3.68-21.22-4.73s-14.06-3.75-21.12-5.54c-1.43-.36-2-.82-1.87-2.23s0-2.66,0-4q0-190-.17-380c0-4.44,1.52-7,5.08-7.4,7.06-.9,13.71-3.35,20.64-4.69s13.63-3.23,20.4-5c6.23-1.68,12.53-3.21,18.84-4.61,7.66-1.7,15.2-3.9,22.81-5.62,6.7-1.5,13.4-3.18,20.08-4.75s13.62-2.76,20.16-5.26c3.26-1.25,6.94-1.45,10.37-2.11,12.51-2.4,24.69-6.17,37.11-8.91,6.32-1.39,13.33-1.63,19.1-6,2.21-1.69,6.11-1.31,9.25-2.09,10.61-2.67,21.29-5.06,31.85-8,6.94-2,14.31-2.44,21.19-4.56,6.43-2,13.07-2.94,19.46-5.12s13.24-3,19.82-4.67c7.08-1.81,14.32-3,21.23-5.51,3.12-1.14,6.56-1.27,9.85-2.13,10.76-2.82,21.67-5,32.41-8,2.93-.8,6.05-.54,9-2.08,2-1.07,3.89-.27,3.42,2.75a24,24,0,0,0,0,3.5Zm-153.8,56.42c0-38.32-.05-76.63.09-114.94,0-3.7-.9-4.78-4.69-4.74q-29.46.28-58.93,0c-3.81,0-4.65,1.07-4.65,4.75q.16,114.93,0,229.87c0,3.69.86,4.75,4.64,4.71q29.22-.31,58.44,0c4.16.05,5.22-1.06,5.2-5.21C1274.58,419.91,1274.64,381.76,1274.64,343.62ZM1198.4,151.47c-1.49,11.68,5.53,23.86,13.79,29.82,16.39,11.82,34.12,12.19,51.24,4C1282,176.34,1287.8,155.45,1282,138c-4.8-14.46-20-25.08-35.3-25-8.38.06-17-1-24.92,2.5C1208.53,121.43,1197,133,1198.4,151.47Z" transform="translate(-12.71)"/><path class="cls-2" d="M1446.92,288.66c0-45.49-.76-91,.38-136.47.45-18.09-.19-36.31,1.64-54.3,1.28-12.47.35-25,2-37.3s1.3-24.69,3.63-36.86c2.66-13.9,13.6-23.75,28-23.58,5.83.07,11.7-.37,17.48.16,7.41.69,14.77,1.94,22.12,3.37,4.53.88,9.16,1.81,13.76,2.58a84.45,84.45,0,0,1,14.4,3.34c3.33,1.19,7,1.61,10.39,2.22,9.59,1.72,19,4.43,28.34,6.78,9,2.26,18.11,4.67,27.11,7.11,6.43,1.75,13.23,3,19.67,4.79,8.84,2.47,17.8,4.55,26.62,7.15,6,1.78,12.22,3.54,18.49,4.8,3.29.66,6.29,2.75,9.85,3.47a160.46,160.46,0,0,1,19.74,5.4c6.3,2.13,12.81,3.56,19.19,5.25,5.87,1.57,11.81,3.07,17.68,4.69,6.06,1.67,12.14,3.33,18.14,5.32,5.11,1.69,10.47,2.81,15.66,4.5,7.64,2.5,15.3,4.88,22.87,7.62,8,2.92,16,5.85,23.14,10.49,10.55,6.85,17.82,15.36,19.36,29,1.83,16.24,2.93,32.49,4.23,48.75.75,9.45,1.06,18.87,1.41,28.31,1.59,41.93,2.6,83.87,1.71,125.82-.53,24.95-1.38,49.9-2.37,74.83-.42,10.39-.28,20.95-1.76,31.24-1.58,10.9-1.7,21.94-3.71,32.77-2.64,14.18-11.3,24.08-23.29,31.13-11.66,6.86-24.48,10.89-37.53,14.41-9.83,2.64-19.58,5.49-29.47,7.95-10.62,2.64-21.22,5.37-31.81,8.08-8.68,2.21-17.41,4.49-26,7.1-6.17,1.87-12.72,3.13-19,4.86-5.89,1.63-11.87,3.47-17.74,5-6.5,1.69-12.45,4.81-19.15,6.1-5.73,1.1-11.52,3.18-17.23,4.8-6,1.69-12.08,3.06-18.07,4.79q-9.3,2.67-18.6,5.26c-6,1.66-12,3.28-18,4.77-6.65,1.64-13.24,3.54-19.82,5.47a87.46,87.46,0,0,1-9.53,1.86,112.93,112.93,0,0,0-13.67,3c-5.84,1.81-11.81,1.33-17.65,2.88s-12.56.69-18.88.83c-7.4.16-14.76.2-21.42-3.93-6.14-3.81-11.38-7.81-13-15.78-2.17-10.46-2.68-21-4.06-31.52-1.68-12.77-.31-25.63-2.16-38.2-1.67-11.31-.89-22.54-1.51-33.79C1445.36,399.58,1446.81,344.11,1446.92,288.66Zm67.15,251.24c4.94-1.07,10.08-2.1,15.14-3.34,7.35-1.8,14.78-3.48,22.11-5.47,5.93-1.62,12-2.82,17.86-4.52,6.55-1.89,13.23-3.32,19.76-5.29,6.07-1.84,12.47-2.63,18.45-4.66,7.13-2.42,14.53-3.57,21.72-5.59,5.7-1.59,11.34-3.28,17.15-4.51,6.33-1.34,12.41-3.81,18.7-5.38,5.74-1.43,11.44-3.12,17.17-4.59,6.56-1.67,13.06-3.76,19.63-5.55,5.4-1.47,10.92-2.72,16.13-4.52,8.38-2.9,17.1-4.38,25.45-7.28,5.37-1.86,10.94-3.1,16.39-4.75,7.85-2.39,15.7-4.8,23.49-7.39,6.49-2.16,13.07-4.17,19.27-7,9.46-4.29,11.42-13.59,12.42-22.44a280.78,280.78,0,0,0,1.94-28.78q.8-82.49.32-165c-.12-25.07,1.29-50.18-1.44-75.25-1.26-11.61.39-23.5-2.62-35-1.88-7.16-3.5-14.56-12.48-16.79-4.52-1.13-8.72-3.51-13.16-5-6.72-2.31-13.44-4.66-20.3-6.47-7.71-2-15.33-4.41-23-6.64-9-2.62-17.93-5.22-26.94-7.68-5.36-1.46-10.61-3.25-16.06-4.46-5.84-1.3-11.4-3.9-17.24-5.19-8.44-1.87-16.67-4.51-25-6.72-9.17-2.43-18.35-4.88-27.46-7.55-3.85-1.13-7.78-1.8-11.64-2.79-6.14-1.59-12.2-3.49-18.34-5.09-6.34-1.65-12.82-2.8-19.07-4.72-6.63-2-13.35-3.67-20.08-5.25-6.16-1.45-12.71-2.36-18.34-4.67-7.85-3.22-16.12-4-23.91-6.67-4.47-1.53-9.2-.7-13.34-2.41-5.08-2.1-10.26-1.38-15.4-1.73-1.29-.09-2.32.73-3.25,2.29-2.53,4.23-2.81,9.19-3.2,13.48-1,10.7-1.65,21.47-2.29,32.22-.61,10.29-.29,20.65-.24,31,.62,134.75-2.46,269.51,1.83,404.24.22,7,1.69,13.65,2.47,20.47s1.73,6.84,8.92,6.86c3.89,0,7.23-1.58,10.85-2.3C1508.87,541.27,1509.81,541.1,1514.07,539.9Zm150.11-6.76c6.55.7,14.13-7.55,14.28-13.79s-7.64-14.19-14-14.32-14.2,7.62-14.3,14C1650.11,525.58,1658,533.82,1664.18,533.14Z" transform="translate(-12.71)"/><path class="cls-3" d="M1274.64,343.62c0,38.14-.06,76.29.1,114.43,0,4.15-1,5.26-5.2,5.21q-29.22-.35-58.44,0c-3.78,0-4.65-1-4.64-4.71q.16-114.94,0-229.87c0-3.68.84-4.79,4.65-4.75q29.46.31,58.93,0c3.79,0,4.7,1,4.69,4.74C1274.59,267,1274.64,305.3,1274.64,343.62Z" transform="translate(-12.71)"/><path class="cls-4" d="M1198.4,151.47c-1.36-18.49,10.13-30,23.38-35.94,7.94-3.54,16.54-2.44,24.92-2.5,15.33-.11,30.5,10.51,35.3,25,5.8,17.45,0,38.34-18.57,47.26-17.12,8.22-34.85,7.85-51.24-4C1203.93,175.33,1196.91,163.15,1198.4,151.47Z" transform="translate(-12.71)"/><path class="cls-5" d="M1692.27,443.1c-10.81,1.16-21.59,2.73-32.53,2.08a133.14,133.14,0,0,1-34.21-6.35c-9.11-3-18-6-26.41-10.6A120,120,0,0,1,1561,395.5c-2.1-2.75-4.17-5.61-6.3-8.27-2.59-3.26-1.48-5,.88-6.7,9.75-6.86,19.65-13.52,29.49-20.27,6-4.09,12-8,17.78-12.41,2.17-1.66,3-1.84,5,.24,8.43,8.88,18.38,15.84,28.55,22.6,12.92,8.58,27,11.43,42.07,9.26,12.11-1.75,19.13-18.67,13.08-30-5.55-10.37-14.78-16.3-25-20.52-15.83-6.54-32.19-11.77-48-18.36a115.52,115.52,0,0,1-44.14-32.3A65.34,65.34,0,0,1,1561,251.65c-2.5-10.3-4.4-20.6-3.51-31.11,1.46-17.3,6.68-33.16,17.38-47.41,9.36-12.45,21.31-21.15,34.65-28.26,7.5-4,15.66-6.37,24.11-8.19,6.74-1.44,13.56-.58,20-2,9.93-2.2,19.5.53,29.16.93a63.42,63.42,0,0,1,24.69,6.06c6.41,3.14,13,6.43,19.38,9.58,15.63,7.66,27.36,19.53,38.5,32.28,2.5,2.85,4.83,5.85,7.07,8.91,1.56,2.14,1.54,3.95-1.13,5.67-14.07,9.07-28,18.4-42.07,27.41-2.59,1.65-5.56,2.76-8.18,4.5-2.34,1.55-4,1.13-6.13-1.36a100.46,100.46,0,0,0-41.25-28.59c-4.25-1.61-8.58-3.21-13-3.5-12-.79-22.56,4.62-27.75,16.73-2.92,6.81,2.59,19.12,9,25,9.83,8.95,21.8,13.48,33.63,18.16,8.12,3.21,16.71,5.38,24.84,8.73,20.15,8.31,38.36,19.65,52.5,36.45,6.46,7.67,10.36,17,12.64,26.93,2,9,4.08,17.9,3.69,27.11-1.18,27.67-12.68,50.42-34.31,67.48a80.88,80.88,0,0,1-30.6,15.3c-2,.49-2.56,1.25-5,2C1697.06,442,1696.47,441.76,1692.27,443.1Z" transform="translate(-12.71)"/><path class="cls-6" d="M160.49,369.61a19.22,19.22,0,0,1,0-28.15q6.13-5.67,15.89-5.67t15.89,5.45a17.45,17.45,0,0,1,6.13,13.62,19.26,19.26,0,0,1-6.13,14.64q-6.14,5.79-15.89,5.79T160.49,369.61Zm-1.82,22.7h35.42V514.44H158.67Z" transform="translate(-12.71)"/><path class="cls-6" d="M243.46,512.05q-17.6-5.1-28.26-13.28l12.48-27.69a84.44,84.44,0,0,0,24.29,12,91.1,91.1,0,0,0,28.15,4.54q15.66,0,23.15-4.65t7.49-12.37a11.82,11.82,0,0,0-4.42-9.42,33.67,33.67,0,0,0-11.35-6q-6.93-2.26-18.73-5a258.78,258.78,0,0,1-29.74-8.63,48.19,48.19,0,0,1-19.86-13.85q-8.29-9.53-8.29-25.42a44.25,44.25,0,0,1,7.49-25.08q7.5-11.24,22.59-17.82t36.89-6.59a122.26,122.26,0,0,1,29.74,3.64,87.8,87.8,0,0,1,25.42,10.44l-11.35,27.92q-22-12.48-44-12.49-15.44,0-22.81,5t-7.38,13.16q0,8.17,8.51,12.15t26,7.83a259.14,259.14,0,0,1,29.73,8.63A49.09,49.09,0,0,1,339,442.71q8.3,9.3,8.29,25.19a43.47,43.47,0,0,1-7.6,24.86q-7.62,11.24-22.82,17.82t-37,6.58A129.77,129.77,0,0,1,243.46,512.05Z" transform="translate(-12.71)"/><path class="cls-6" d="M394,508.2a60.3,60.3,0,0,1-24.29-22.36,64.67,64.67,0,0,1,0-64.93A60.36,60.36,0,0,1,394,398.55Q409.5,390.5,429,390.5q19.29,0,33.71,8.05a47.88,47.88,0,0,1,21,23.05l-27.46,14.75q-9.54-16.8-27.47-16.8-13.85,0-22.93,9.08t-9.08,24.74q0,15.67,9.08,24.75t22.93,9.08q18.17,0,27.47-16.8l27.46,15a48.78,48.78,0,0,1-21,22.7q-14.43,8.18-33.71,8.17Q409.5,516.25,394,508.2Z" transform="translate(-12.71)"/><path class="cls-6" d="M526.07,508.2a59.89,59.89,0,0,1-24-22.36,65.38,65.38,0,0,1,0-64.93,60,60,0,0,1,24-22.36q15.31-8.06,34.62-8.05t34.5,8.05A60.25,60.25,0,0,1,619,420.91q8.63,14.31,8.62,32.46T619,485.84a60.18,60.18,0,0,1-23.84,22.36q-15.21,8.06-34.5,8.05T526.07,508.2Zm57-30.2q8.73-9.18,8.74-24.63t-8.74-24.62q-8.74-9.19-22.36-9.2t-22.48,9.2q-8.85,9.18-8.85,24.62T538.21,478q8.87,9.19,22.48,9.2T583.05,478Z" transform="translate(-12.71)"/><path class="cls-6" d="M754.43,398.33a56.23,56.23,0,0,1,21.91,22q7.93,14.19,7.94,33t-7.94,33a56.23,56.23,0,0,1-21.91,22,62.23,62.23,0,0,1-31,7.83q-23.38,0-36.78-14.75v57H651.26V392.31h33.82v14.08q13.17-15.9,38.37-15.89A62.23,62.23,0,0,1,754.43,398.33ZM739.68,478q8.73-9.18,8.74-24.63t-8.74-24.62q-8.74-9.19-22.36-9.2T695,428.75q-8.75,9.18-8.74,24.62T695,478q8.73,9.19,22.36,9.2T739.68,478Z" transform="translate(-12.71)"/><path class="cls-6" d="M926.83,463.36H834.45a28.74,28.74,0,0,0,11.8,17.94q9.3,6.58,23.15,6.58A46.65,46.65,0,0,0,886.31,485a41,41,0,0,0,13.74-9l18.84,20.42q-17.25,19.75-50.39,19.75-20.67,0-36.55-8.05a59.05,59.05,0,0,1-24.52-22.36q-8.62-14.31-8.62-32.47A62.35,62.35,0,0,1,807.32,421a59.68,59.68,0,0,1,23.38-22.48,72.46,72.46,0,0,1,65.72-.34,56.44,56.44,0,0,1,22.81,22.14q8.28,14.41,8.29,33.48Q927.52,454.51,926.83,463.36ZM844,424.09q-8.18,6.81-10,18.62h60.16q-1.83-11.58-10-18.5t-20-6.93Q852.15,417.28,844,424.09Z" transform="translate(-12.71)"/><path class="cls-6" d="M52.32,229.28A69.87,69.87,0,0,1,23.49,205.9q-10.78-15.21-10.78-35.41,0-14.09,6.13-30.65h32q-4.32,14.29-4.31,24.74,0,18.61,11.46,28.95t33.48,10.32h88.76V128.49h34.27v109h-123A93.79,93.79,0,0,1,52.32,229.28Zm47.33,61.29a19.26,19.26,0,1,1,27.24-27.24,19.26,19.26,0,1,1-27.24,27.24Z" transform="translate(-12.71)"/><path class="cls-6" d="M384.54,237.45H360.47q-4.08,27.69-21.11,41.88t-46.31,14.19a173.57,173.57,0,0,1-30.64-2.95V257.43a190.64,190.64,0,0,0,25.65,2q15.66,0,24.86-5.34t12.59-16.68H316q-26.79,0-44.15-8.51t-25.31-22.36a59.6,59.6,0,0,1-8-30.19,61.21,61.21,0,0,1,8.18-30.88q8.16-14.3,25.65-23.15t44-8.85h45.18v90.34h22.93ZM282.16,195.91q10.44,8,34.27,7.94h11.36V147.78H316q-23.61,0-33.94,8.06t-10.32,20.09Q271.72,188,282.16,195.91Z" transform="translate(-12.71)"/><path class="cls-6" d="M540.71,203.85v33.6q-33.37,0-47.9-17-17,17-52.66,17H384.53q-7.93,0-12.48-5a17.62,17.62,0,0,1,0-23.61q4.54-5,12.48-5h55.62q12.48,0,19.29-1.81t9.65-6q2.84-4.2,2.84-12.14,0-10-9-17.48t-25.42-11.58q-16.47-4.08-38.48-4.08l-6.81-42.68a203.92,203.92,0,0,1,48.92-27.35q26-10.11,63.22-16l5,33.6a225.51,225.51,0,0,0-40.52,8.85,190.93,190.93,0,0,0-35.52,15q33.82,4.77,53,20.55t19.87,39.61Q509.38,203.86,540.71,203.85Z" transform="translate(-12.71)"/><path class="cls-6" d="M776.79,203.85v33.6H706.42q-15.21,0-25.2-4.65a35.47,35.47,0,0,1-15.66-14,48.88,48.88,0,0,1-16.12,13.73,42.78,42.78,0,0,1-20.2,4.88H540.71a18.34,18.34,0,0,1-13.05-4.77,16.72,16.72,0,0,1,0-24.06,18.34,18.34,0,0,1,13.05-4.77h28.37V120.32h34.28v83.53H624.7q19.29,0,19.29-29V120.32h34.28V174.8q0,15,5.79,22t17.82,7h17v-91h34.28v91Z" transform="translate(-12.71)"/><path class="cls-6" d="M805.16,128.49h34.28v109H776.79a18,18,0,0,1-12.94-5,16.31,16.31,0,0,1-5.22-12.26,15.23,15.23,0,0,1,5-11.81q5-4.53,13.17-4.54h28.37ZM785.64,290.34A19.17,19.17,0,1,1,799.26,296,18.54,18.54,0,0,1,785.64,290.34Zm45.17,0A19.17,19.17,0,1,1,844.43,296,18.57,18.57,0,0,1,830.81,290.34Z" transform="translate(-12.71)"/><path class="cls-6" d="M862.59,47.91V40.64q0-10,5-16a16.5,16.5,0,0,1,13.39-6,20.88,20.88,0,0,1,9.19,1.93,46.65,46.65,0,0,1,6.81,4,37.21,37.21,0,0,1,3.52,2.73A51.88,51.88,0,0,0,908,31.79a16.08,16.08,0,0,0,6.81,1.36c2,0,3.37-.57,4.2-1.7s1.25-3.14,1.25-6V17.94h14.53v7.49q0,10.44-5.34,16.46t-14.64,6a25,25,0,0,1-11-2.16,116.89,116.89,0,0,1-11.46-6.7l-3.86-2.5A42.06,42.06,0,0,0,885,34.17a6.08,6.08,0,0,0-3.06-1q-4.54,0-4.54,7.49v7.27ZM880.3,70.83h34.28V237.45H880.3Z" transform="translate(-12.71)"/></g></g></svg>