<?xml version="1.0" encoding="utf-8"?>
<!-- Generator: Adobe Illustrator 27.5.0, SVG Export Plug-In . SVG Version: 6.00 Build 0)  -->
<svg version="1.1" xmlns="http://www.w3.org/2000/svg"
	xmlns:xlink="http://www.w3.org/1999/xlink" x="0px" y="0px"
	viewBox="0 0 500 500" style="enable-background:new 0 0 500 500;"
	xml:space="preserve">
	<g id="BACKGROUND">
		<rect style="fill:#7E76E5;" width="500" height="500" />
		<path style="fill:#7370E0;"
			d="M88.016,412.466c2.862-10.355,9.583-19.43,18.485-25.398c9.644-6.466,21.862-7.544,33.148-8.127
		c14.122-0.73,28.618,0.474,42.789-1.378c12.116-1.584,22.545-7.771,31.699-15.678c9.752-8.424,17.893-18.467,26.629-27.891
		c8.968-9.674,19.301-18.074,31.068-21.879c11.767-3.805,25.147-2.511,35.079,5.781c13.185,11.007,17.67,31.162,26.838,46.768
		c8.675,14.766,22.197,25.742,37.242,29.214c9.225,2.129,18.742,1.49,28.103,2.529c9.362,1.039,19.11,4.119,25.589,12.077
		c3.537,4.344,5.646,10.462,5.777,16.403c-0.386,0-0.771,0-1.157,0H85.324C85.324,424.887,86.792,416.892,88.016,412.466z" />
	</g>
	<g id="OBJECTS">
		<g>
			<linearGradient id="SVGID_1_" gradientUnits="userSpaceOnUse"
				x1="250" y1="110.708" x2="250" y2="243.77">
				<stop offset="0" style="stop-color:#66DCC7" />
				<stop offset="1" style="stop-color:#7E76E5" />
			</linearGradient>
			<path style="fill:url(#SVGID_1_);"
				d="M454.31,223.495c0,0-4.963-39.217-38.131-51.99c-16.714-6.437-30.743-3.742-30.743-3.742
			c-7.774-17.897-25.599-30.418-46.356-30.418c-1.587,0-3.154,0.083-4.703,0.226c-13.861-20.291-37.172-33.615-63.6-33.615
			c-25.071,0-47.335,11.992-61.39,30.546c-10.414-5.653-22.346-8.865-35.029-8.865c-33.596,0-61.909,22.541-70.693,53.318
			c-3.3-1.012-6.805-1.444-10.435-1.56c-25.686-0.825-47.709,24.513-47.54,46.099H454.31z" />
			<polygon style="fill:#E5C364;" points="323.616,259.607 341.439,223.616 324.133,223.495 314.871,265.124 334.611,265.288 
			322.155,299.575 342.647,259.797 		" />
		</g>

		<text transform="matrix(1 0 0 1 114.4277 168.5193)"
			style="fill:#F7F6F7; font-family:'FiraSans-SemiBold'; font-size:160.4408px;">404</text>

		<linearGradient
			id="SVGID_00000071540886534667074710000017843994868409202837_"
			gradientUnits="userSpaceOnUse" x1="107.5657" y1="113.3028"
			x2="107.5657" y2="161.9059">
			<stop offset="0" style="stop-color:#66DCC7" />
			<stop offset="0.1733"
				style="stop-color:#68D2CA;stop-opacity:0.8787" />
			<stop offset="0.4732"
				style="stop-color:#6FB5D2;stop-opacity:0.6687" />
			<stop offset="0.8614"
				style="stop-color:#7A88E0;stop-opacity:0.397" />
			<stop offset="1" style="stop-color:#7E76E5;stop-opacity:0.3" />
		</linearGradient>
		<path
			style="fill:url(#SVGID_00000071540886534667074710000017843994868409202837_);"
			d="M182.193,154.5
		c0,0-1.813-14.325-13.928-18.99c-6.105-2.351-11.23-1.367-11.23-1.367c-2.84-6.537-9.35-11.111-16.932-11.111
		c-0.58,0-1.152,0.03-1.718,0.082c-5.063-7.412-13.578-12.278-23.231-12.278c-9.158,0-17.29,4.38-22.424,11.158
		c-3.804-2.065-8.162-3.238-12.795-3.238c-12.272,0-22.613,8.233-25.822,19.475c-1.205-0.37-2.486-0.527-3.812-0.57
		c-9.382-0.301-17.427,8.954-17.365,16.839H182.193z" />

		<linearGradient
			id="SVGID_00000171678324225347938090000000570617363600063141_"
			gradientUnits="userSpaceOnUse" x1="393.8889" y1="145.0202"
			x2="393.8889" y2="197.6571">
			<stop offset="0" style="stop-color:#66DCC7" />
			<stop offset="0.1733"
				style="stop-color:#68D2CA;stop-opacity:0.8787" />
			<stop offset="0.4732"
				style="stop-color:#6FB5D2;stop-opacity:0.6687" />
			<stop offset="0.8614"
				style="stop-color:#7A88E0;stop-opacity:0.397" />
			<stop offset="1" style="stop-color:#7E76E5;stop-opacity:0.3" />
		</linearGradient>
		<path
			style="fill:url(#SVGID_00000171678324225347938090000000570617363600063141_);"
			d="M474.71,189.637
		c0,0-1.963-15.514-15.084-20.566c-6.612-2.546-12.161-1.48-12.161-1.48c-3.075-7.08-10.127-12.033-18.338-12.033
		c-0.628,0-1.247,0.033-1.86,0.089c-5.483-8.027-14.704-13.297-25.159-13.297c-9.918,0-18.725,4.744-24.285,12.084
		c-4.12-2.236-8.84-3.507-13.857-3.507c-13.29,0-24.49,8.917-27.965,21.092c-1.306-0.4-2.692-0.571-4.128-0.617
		c-10.161-0.326-18.873,9.697-18.806,18.236H474.71z" />
		<g>
			<rect x="237.433" y="331.904" style="fill:#F7F6F7;" width="81.7"
				height="92.661" />
			<g>

				<linearGradient
					id="SVGID_00000041273495806986660110000012681626271330811583_"
					gradientUnits="userSpaceOnUse" x1="230.8417" y1="393.7359"
					x2="230.5045" y2="424.8702">
					<stop offset="0" style="stop-color:#6FA7DA" />
					<stop offset="1" style="stop-color:#7E76E5" />
				</linearGradient>
				<path
					style="fill:url(#SVGID_00000041273495806986660110000012681626271330811583_);"
					d="M233.249,415.136
				c0,8.598-1.181,10.027-2.639,10.027c-1.457,0-2.639-1.429-2.639-10.027c0-8.599,1.182-21.11,2.639-21.11
				C232.068,394.026,233.249,406.538,233.249,415.136z" />

				<linearGradient
					id="SVGID_00000088816110311889502120000016254525328662990727_"
					gradientUnits="userSpaceOnUse" x1="222.8369" y1="396.83"
					x2="230.9348" y2="424.6106">
					<stop offset="0" style="stop-color:#6FA7DA" />
					<stop offset="1" style="stop-color:#7E76E5" />
				</linearGradient>
				<path
					style="fill:url(#SVGID_00000088816110311889502120000016254525328662990727_);"
					d="M230.622,414.736
				c2.17,7.728,1.468,9.31,0.159,9.678s-2.732-0.618-4.902-8.346c-2.17-7.728-4.265-19.271-2.955-19.639
				C224.233,396.061,228.452,407.008,230.622,414.736z" />

				<linearGradient
					id="SVGID_00000039096590776477112890000010805670022419002803_"
					gradientUnits="userSpaceOnUse" x1="216.7851" y1="400.7182"
					x2="230.3942" y2="424.4498">
					<stop offset="0" style="stop-color:#6FA7DA" />
					<stop offset="1" style="stop-color:#7E76E5" />
				</linearGradient>
				<path
					style="fill:url(#SVGID_00000039096590776477112890000010805670022419002803_);"
					d="M228.06,415.658
				c3.729,6.685,3.431,8.308,2.298,8.94c-1.133,0.632-2.671,0.034-6.4-6.651c-3.729-6.685-8.237-16.924-7.105-17.556
				C217.985,399.759,224.33,408.973,228.06,415.658z" />

				<linearGradient
					id="SVGID_00000181786372155801063930000009511538362981918904_"
					gradientUnits="userSpaceOnUse" x1="213.8873" y1="406.8958"
					x2="230.4207" y2="425.0039">
					<stop offset="0" style="stop-color:#6FA7DA" />
					<stop offset="1" style="stop-color:#7E76E5" />
				</linearGradient>
				<path
					style="fill:url(#SVGID_00000181786372155801063930000009511538362981918904_);"
					d="M226.445,417.564
				c4.542,5.036,4.604,6.497,3.751,7.266c-0.854,0.77-2.3,0.557-6.842-4.479c-4.541-5.036-10.458-12.988-9.604-13.757
				C214.604,405.824,221.904,412.528,226.445,417.564z" />

				<linearGradient
					id="SVGID_00000091012179754237045250000013796333638409353124_"
					gradientUnits="userSpaceOnUse" x1="238.1609" y1="396.3186"
					x2="230.5128" y2="424.4366">
					<stop offset="0" style="stop-color:#6FA7DA" />
					<stop offset="1" style="stop-color:#7E76E5" />
				</linearGradient>
				<path
					style="fill:url(#SVGID_00000091012179754237045250000013796333638409353124_);"
					d="M230.599,414.736
				c-2.17,7.728-1.468,9.31-0.159,9.678c1.31,0.368,2.732-0.618,4.902-8.346c2.17-7.728,4.265-19.271,2.955-19.639
				C236.987,396.061,232.768,407.008,230.599,414.736z" />

				<linearGradient
					id="SVGID_00000014633230288853315160000010239762575368647097_"
					gradientUnits="userSpaceOnUse" x1="244.1799" y1="400.1709"
					x2="231.0261" y2="424.5674">
					<stop offset="0" style="stop-color:#6FA7DA" />
					<stop offset="1" style="stop-color:#7E76E5" />
				</linearGradient>
				<path
					style="fill:url(#SVGID_00000014633230288853315160000010239762575368647097_);"
					d="M233.161,415.658
				c-3.729,6.685-3.43,8.308-2.298,8.94c1.133,0.632,2.671,0.034,6.401-6.651c3.729-6.685,8.237-16.924,7.104-17.556
				C243.235,399.759,236.89,408.973,233.161,415.658z" />

				<linearGradient
					id="SVGID_00000108287337942254593920000000188415970100378790_"
					gradientUnits="userSpaceOnUse" x1="247.042" y1="406.7813"
					x2="231.2959" y2="424.6643">
					<stop offset="0" style="stop-color:#6FA7DA" />
					<stop offset="1" style="stop-color:#7E76E5" />
				</linearGradient>
				<path
					style="fill:url(#SVGID_00000108287337942254593920000000188415970100378790_);"
					d="M234.775,417.564
				c-4.541,5.036-4.604,6.497-3.751,7.266c0.854,0.77,2.3,0.557,6.842-4.479c4.542-5.036,10.458-12.988,9.604-13.757
				C246.617,405.824,239.317,412.528,234.775,417.564z" />
			</g>
			<g>

				<linearGradient
					id="SVGID_00000097475970333450271000000014713405804525528969_"
					gradientUnits="userSpaceOnUse" x1="325.0444" y1="401.4911"
					x2="324.7904" y2="424.9426">
					<stop offset="0" style="stop-color:#6FA7DA" />
					<stop offset="1" style="stop-color:#7E76E5" />
				</linearGradient>
				<path
					style="fill:url(#SVGID_00000097475970333450271000000014713405804525528969_);"
					d="M326.858,417.611
				c0,6.477-0.89,7.553-1.988,7.553c-1.098,0-1.988-1.076-1.988-7.553c0-6.477,0.89-15.901,1.988-15.901
				C325.968,401.709,326.858,411.134,326.858,417.611z" />

				<linearGradient
					id="SVGID_00000156557991301168976380000015755090663164796332_"
					gradientUnits="userSpaceOnUse" x1="319.0149" y1="403.8217"
					x2="325.1146" y2="424.7471">
					<stop offset="0" style="stop-color:#6FA7DA" />
					<stop offset="1" style="stop-color:#7E76E5" />
				</linearGradient>
				<path
					style="fill:url(#SVGID_00000156557991301168976380000015755090663164796332_);"
					d="M324.879,417.309
				c1.634,5.821,1.106,7.013,0.12,7.29c-0.987,0.277-2.058-0.466-3.692-6.287c-1.634-5.821-3.212-14.516-2.226-14.793
				C320.067,403.242,323.245,411.488,324.879,417.309z" />

				<linearGradient
					id="SVGID_00000010994782330616395150000017436969162253477051_"
					gradientUnits="userSpaceOnUse" x1="314.4565" y1="406.7505"
					x2="324.7074" y2="424.626">
					<stop offset="0" style="stop-color:#6FA7DA" />
					<stop offset="1" style="stop-color:#7E76E5" />
				</linearGradient>
				<path
					style="fill:url(#SVGID_00000010994782330616395150000017436969162253477051_);"
					d="M322.949,418.003
				c2.809,5.035,2.584,6.258,1.731,6.734c-0.853,0.476-2.012,0.025-4.821-5.01c-2.809-5.035-6.205-12.748-5.351-13.224
				C315.361,406.028,320.14,412.968,322.949,418.003z" />

				<linearGradient
					id="SVGID_00000115504566446985903250000001692487944648072345_"
					gradientUnits="userSpaceOnUse" x1="312.2738" y1="411.4036"
					x2="324.7273" y2="425.0432">
					<stop offset="0" style="stop-color:#6FA7DA" />
					<stop offset="1" style="stop-color:#7E76E5" />
				</linearGradient>
				<path
					style="fill:url(#SVGID_00000115504566446985903250000001692487944648072345_);"
					d="M321.733,419.439
				c3.421,3.793,3.468,4.893,2.825,5.473c-0.643,0.58-1.733,0.419-5.153-3.374c-3.421-3.793-7.877-9.783-7.234-10.362
				C312.813,410.596,318.312,415.646,321.733,419.439z" />

				<linearGradient
					id="SVGID_00000163774579065158315100000000702400792541814963_"
					gradientUnits="userSpaceOnUse" x1="330.5575" y1="403.4365"
					x2="324.7966" y2="424.616">
					<stop offset="0" style="stop-color:#6FA7DA" />
					<stop offset="1" style="stop-color:#7E76E5" />
				</linearGradient>
				<path
					style="fill:url(#SVGID_00000163774579065158315100000000702400792541814963_);"
					d="M324.861,417.309
				c-1.634,5.821-1.106,7.013-0.119,7.29c0.987,0.277,2.058-0.466,3.692-6.287c1.634-5.821,3.213-14.516,2.226-14.793
				S326.496,411.488,324.861,417.309z" />

				<linearGradient
					id="SVGID_00000106867194604334130470000004340450625709734553_"
					gradientUnits="userSpaceOnUse" x1="335.0912" y1="406.3382"
					x2="325.1833" y2="424.7145">
					<stop offset="0" style="stop-color:#6FA7DA" />
					<stop offset="1" style="stop-color:#7E76E5" />
				</linearGradient>
				<path
					style="fill:url(#SVGID_00000106867194604334130470000004340450625709734553_);"
					d="M326.791,418.003
				c-2.809,5.035-2.584,6.258-1.731,6.734c0.853,0.476,2.012,0.025,4.821-5.01c2.809-5.035,6.205-12.748,5.351-13.224
				S329.6,412.968,326.791,418.003z" />

				<linearGradient
					id="SVGID_00000071559295482070374880000012611317438844879806_"
					gradientUnits="userSpaceOnUse" x1="337.247" y1="411.3173"
					x2="325.3865" y2="424.7875">
					<stop offset="0" style="stop-color:#6FA7DA" />
					<stop offset="1" style="stop-color:#7E76E5" />
				</linearGradient>
				<path
					style="fill:url(#SVGID_00000071559295482070374880000012611317438844879806_);"
					d="M328.007,419.439
				c-3.421,3.793-3.468,4.893-2.825,5.473c0.643,0.58,1.733,0.419,5.153-3.374c3.421-3.793,7.877-9.783,7.234-10.362
				C336.927,410.596,331.428,415.646,328.007,419.439z" />
			</g>
			<g>

				<linearGradient
					id="SVGID_00000045591928652325397400000013193863513986352793_"
					gradientUnits="userSpaceOnUse" x1="260.2185" y1="348.9187"
					x2="260.2185" y2="367.1042">
					<stop offset="0" style="stop-color:#6FA7DA" />
					<stop offset="1" style="stop-color:#7E76E5" />
				</linearGradient>

				<rect x="244.458" y="347.996"
					style="fill:url(#SVGID_00000045591928652325397400000013193863513986352793_);"
					width="31.521" height="16.337" />

				<linearGradient
					id="SVGID_00000050650974813402533010000017983695354481706379_"
					gradientUnits="userSpaceOnUse" x1="257.5227" y1="348.7281"
					x2="257.5227" y2="364.7997">
					<stop offset="0"
						style="stop-color:#F7F6F7;stop-opacity:0.6" />
					<stop offset="1"
						style="stop-color:#F7F6F7;stop-opacity:0" />
				</linearGradient>
				<polygon
					style="fill:url(#SVGID_00000050650974813402533010000017983695354481706379_);"
					points="256.891,364.333 
				252.803,364.333 258.155,347.996 262.242,347.996 			" />

				<linearGradient
					id="SVGID_00000033369983011303277300000009605260791055130247_"
					gradientUnits="userSpaceOnUse" x1="262.3571" y1="348.7281"
					x2="262.3571" y2="364.7997">
					<stop offset="0"
						style="stop-color:#F7F6F7;stop-opacity:0.6" />
					<stop offset="1"
						style="stop-color:#F7F6F7;stop-opacity:0" />
				</linearGradient>
				<polygon
					style="fill:url(#SVGID_00000033369983011303277300000009605260791055130247_);"
					points="260.465,364.333 
				258.898,364.333 264.249,347.996 265.817,347.996 			" />
			</g>
			<g>

				<linearGradient
					id="SVGID_00000090999916068508282120000011284087171082984344_"
					gradientUnits="userSpaceOnUse" x1="296.3472" y1="348.9187"
					x2="296.3472" y2="367.1042">
					<stop offset="0" style="stop-color:#6FA7DA" />
					<stop offset="1" style="stop-color:#7E76E5" />
				</linearGradient>

				<rect x="280.586" y="347.996"
					style="fill:url(#SVGID_00000090999916068508282120000011284087171082984344_);"
					width="31.521" height="16.337" />

				<linearGradient
					id="SVGID_00000124851159399539706570000011925486849580014506_"
					gradientUnits="userSpaceOnUse" x1="290.9693" y1="348.7281"
					x2="290.9693" y2="364.7997">
					<stop offset="0"
						style="stop-color:#F7F6F7;stop-opacity:0.6" />
					<stop offset="1"
						style="stop-color:#F7F6F7;stop-opacity:0" />
				</linearGradient>
				<polygon
					style="fill:url(#SVGID_00000124851159399539706570000011925486849580014506_);"
					points="290.337,364.333 
				286.25,364.333 291.601,347.996 295.689,347.996 			" />

				<linearGradient
					id="SVGID_00000039111386655789482770000004495913129519748267_"
					gradientUnits="userSpaceOnUse" x1="295.8037" y1="348.7281"
					x2="295.8037" y2="364.7997">
					<stop offset="0"
						style="stop-color:#F7F6F7;stop-opacity:0.6" />
					<stop offset="1"
						style="stop-color:#F7F6F7;stop-opacity:0" />
				</linearGradient>
				<polygon
					style="fill:url(#SVGID_00000039111386655789482770000004495913129519748267_);"
					points="293.912,364.333 
				292.344,364.333 297.696,347.996 299.263,347.996 			" />
			</g>
			<g>

				<linearGradient
					id="SVGID_00000018919933891815286200000009548566380498543259_"
					gradientUnits="userSpaceOnUse" x1="296.3472" y1="389.2463"
					x2="296.3472" y2="407.4318">
					<stop offset="0" style="stop-color:#6FA7DA" />
					<stop offset="1" style="stop-color:#7E76E5" />
				</linearGradient>

				<rect x="280.586" y="388.323"
					style="fill:url(#SVGID_00000018919933891815286200000009548566380498543259_);"
					width="31.521" height="16.337" />

				<linearGradient
					id="SVGID_00000049919689655425054460000004448007274592069029_"
					gradientUnits="userSpaceOnUse" x1="294.9693" y1="389.0558"
					x2="294.9693" y2="405.1273">
					<stop offset="0"
						style="stop-color:#F7F6F7;stop-opacity:0.6" />
					<stop offset="1"
						style="stop-color:#F7F6F7;stop-opacity:0" />
				</linearGradient>
				<polygon
					style="fill:url(#SVGID_00000049919689655425054460000004448007274592069029_);"
					points="294.337,404.661 
				290.25,404.661 295.601,388.323 299.689,388.323 			" />

				<linearGradient
					id="SVGID_00000063634307089446845370000013287801095107466896_"
					gradientUnits="userSpaceOnUse" x1="299.8037" y1="389.0558"
					x2="299.8037" y2="405.1273">
					<stop offset="0"
						style="stop-color:#F7F6F7;stop-opacity:0.6" />
					<stop offset="1"
						style="stop-color:#F7F6F7;stop-opacity:0" />
				</linearGradient>
				<polygon
					style="fill:url(#SVGID_00000063634307089446845370000013287801095107466896_);"
					points="297.912,404.661 
				296.344,404.661 301.696,388.323 303.263,388.323 			" />
			</g>
			<line style="fill:none;stroke:#7E76E5;stroke-miterlimit:10;"
				x1="237.433" y1="378.234" x2="319.115" y2="378.234" />

			<linearGradient
				id="SVGID_00000104700844855601424930000015690260442381859771_"
				gradientUnits="userSpaceOnUse" x1="261.2185" y1="393.6563"
				x2="261.2185" y2="439.4951">
				<stop offset="0" style="stop-color:#66DCC7" />
				<stop offset="1" style="stop-color:#7E76E5" />
			</linearGradient>

			<rect x="249.138" y="388.323"
				style="fill:url(#SVGID_00000104700844855601424930000015690260442381859771_);"
				width="24.161" height="36.121" />
			<g>
				<line style="fill:none;stroke:#66DCC7;stroke-miterlimit:10;"
					x1="237.855" y1="324.815" x2="237.855" y2="331.904" />
				<line style="fill:none;stroke:#66DCC7;stroke-miterlimit:10;"
					x1="241.222" y1="324.815" x2="241.222" y2="331.904" />
				<line style="fill:none;stroke:#66DCC7;stroke-miterlimit:10;"
					x1="244.59" y1="324.815" x2="244.59" y2="331.904" />
				<line style="fill:none;stroke:#66DCC7;stroke-miterlimit:10;"
					x1="247.958" y1="324.815" x2="247.958" y2="331.904" />
				<line style="fill:none;stroke:#66DCC7;stroke-miterlimit:10;"
					x1="251.325" y1="324.815" x2="251.325" y2="331.904" />
				<line style="fill:none;stroke:#66DCC7;stroke-miterlimit:10;"
					x1="254.693" y1="324.815" x2="254.693" y2="331.904" />
				<line style="fill:none;stroke:#66DCC7;stroke-miterlimit:10;"
					x1="258.06" y1="324.815" x2="258.06" y2="331.904" />
				<line style="fill:none;stroke:#66DCC7;stroke-miterlimit:10;"
					x1="261.428" y1="324.815" x2="261.428" y2="331.904" />
				<line style="fill:none;stroke:#66DCC7;stroke-miterlimit:10;"
					x1="264.796" y1="324.815" x2="264.796" y2="331.904" />
				<line style="fill:none;stroke:#66DCC7;stroke-miterlimit:10;"
					x1="268.163" y1="324.815" x2="268.163" y2="331.904" />
				<line style="fill:none;stroke:#66DCC7;stroke-miterlimit:10;"
					x1="271.531" y1="324.815" x2="271.531" y2="331.904" />
				<line style="fill:none;stroke:#66DCC7;stroke-miterlimit:10;"
					x1="274.898" y1="324.815" x2="274.898" y2="331.904" />
				<line style="fill:none;stroke:#66DCC7;stroke-miterlimit:10;"
					x1="278.266" y1="324.815" x2="278.266" y2="331.904" />
				<line style="fill:none;stroke:#66DCC7;stroke-miterlimit:10;"
					x1="281.633" y1="324.815" x2="281.633" y2="331.904" />
				<line style="fill:none;stroke:#66DCC7;stroke-miterlimit:10;"
					x1="285.001" y1="324.815" x2="285.001" y2="331.904" />
				<line style="fill:none;stroke:#66DCC7;stroke-miterlimit:10;"
					x1="288.369" y1="324.815" x2="288.369" y2="331.904" />
				<line style="fill:none;stroke:#66DCC7;stroke-miterlimit:10;"
					x1="291.736" y1="324.815" x2="291.736" y2="331.904" />
				<line style="fill:none;stroke:#66DCC7;stroke-miterlimit:10;"
					x1="295.104" y1="324.815" x2="295.104" y2="331.904" />
				<line style="fill:none;stroke:#66DCC7;stroke-miterlimit:10;"
					x1="298.471" y1="324.815" x2="298.471" y2="331.904" />
				<line style="fill:none;stroke:#66DCC7;stroke-miterlimit:10;"
					x1="301.839" y1="324.815" x2="301.839" y2="331.904" />
				<line style="fill:none;stroke:#66DCC7;stroke-miterlimit:10;"
					x1="305.207" y1="324.815" x2="305.207" y2="331.904" />
				<line style="fill:none;stroke:#66DCC7;stroke-miterlimit:10;"
					x1="308.574" y1="324.815" x2="308.574" y2="331.904" />
				<line style="fill:none;stroke:#66DCC7;stroke-miterlimit:10;"
					x1="311.942" y1="324.815" x2="311.942" y2="331.904" />
				<line style="fill:none;stroke:#66DCC7;stroke-miterlimit:10;"
					x1="315.309" y1="324.815" x2="315.309" y2="331.904" />
				<line style="fill:none;stroke:#66DCC7;stroke-miterlimit:10;"
					x1="318.677" y1="324.815" x2="318.677" y2="331.904" />
			</g>

			<line
				style="fill:none;stroke:#66DCC7;stroke-width:2;stroke-linecap:round;stroke-miterlimit:10;"
				x1="350.362" y1="424.565" x2="206.203" y2="424.565" />
			<g>
				<path style="fill:#66DCC7;"
					d="M314.871,339.695c0,1.526-1.237,2.763-2.763,2.763c-1.526,0-2.763-1.237-2.763-2.763
				s1.237-2.763,2.763-2.763C313.634,336.932,314.871,338.169,314.871,339.695z" />
				<polyline style="fill:none;stroke:#66DCC7;stroke-miterlimit:10;"
					points="312.108,339.695 331.383,331.904 321.103,304.158 			
				" />

				<linearGradient
					id="SVGID_00000173141038822308173910000012814750230237182107_"
					gradientUnits="userSpaceOnUse" x1="322.6876" y1="309.0635"
					x2="328.3927" y2="323.6919">
					<stop offset="0" style="stop-color:#6FA7DA" />
					<stop offset="1" style="stop-color:#778CE0" />
				</linearGradient>
				<path
					style="fill:url(#SVGID_00000173141038822308173910000012814750230237182107_);"
					d="M308.051,312.98
				c1.545,4.342,9.153,5.6,16.993,2.81c7.84-2.79,12.942-8.571,11.397-12.913L308.051,312.98z" />
				<path style="fill:#66DCC7;"
					d="M322.105,304.158c0,0.588-0.477,1.065-1.065,1.065c-0.588,0-1.065-0.477-1.065-1.065
				c0-0.588,0.477-1.065,1.065-1.065C321.629,303.094,322.105,303.57,322.105,304.158z" />

				<linearGradient
					id="SVGID_00000033339599513512168610000002063899776389993382_"
					gradientUnits="userSpaceOnUse" x1="330.9535" y1="330.4066"
					x2="332.0804" y2="333.527">
					<stop offset="0" style="stop-color:#6FA7DA" />
					<stop offset="1" style="stop-color:#778CE0" />
				</linearGradient>
				<path
					style="fill:url(#SVGID_00000033339599513512168610000002063899776389993382_);"
					d="M333.045,331.595
				c0,0.918-0.744,1.662-1.662,1.662c-0.918,0-1.662-0.744-1.662-1.662c0-0.918,0.744-1.662,1.662-1.662
				C332.301,329.932,333.045,330.677,333.045,331.595z" />
			</g>
		</g>
		<g>
			<polygon style="fill:#F7F6F7;"
				points="181.48,424.444 175.269,424.444 176.676,304 180.181,304 		" />
			<polyline
				style="fill:none;stroke:#66DCC7;stroke-linecap:round;stroke-miterlimit:10;"
				points="176.604,310.154 180.249,310.154 
			205.051,299.956 		" />

			<linearGradient
				id="SVGID_00000168795247238400659670000003826019292037314209_"
				gradientUnits="userSpaceOnUse" x1="205.0509" y1="307.25"
				x2="205.0509" y2="424.2543">
				<stop offset="0" style="stop-color:#E5C364;stop-opacity:0.6" />
				<stop offset="1" style="stop-color:#E5C364;stop-opacity:0" />
			</linearGradient>
			<polygon
				style="fill:url(#SVGID_00000168795247238400659670000003826019292037314209_);"
				points="259.986,424.565 
			150.116,424.565 200.116,304.385 209.986,304.385 		" />
			<circle style="fill:#E5C364;" cx="205.051" cy="304.385" r="2.403" />
			<path style="fill:#66DCC7;" d="M209.986,304.385h-9.87l0,0c0-2.726,2.21-4.935,4.935-4.935l0,0
			C207.776,299.45,209.986,301.659,209.986,304.385L209.986,304.385z" />

			<line
				style="fill:none;stroke:#66DCC7;stroke-width:2;stroke-linecap:round;stroke-miterlimit:10;"
				x1="191" y1="424.444" x2="165.75" y2="424.444" />
		</g>
	</g>
	<!-- <g id="DESIGNED_BY_FREEPIK">
	<g>
		<g id="XMLID_57_">
			<g id="XMLID_76_">
				<path id="XMLID_84_" style="fill:#242930;" d="M260.104,465.465c-0.432,0.443-0.803,0.931-1.108,1.453l-0.465-0.241
					c-0.067-0.298-0.349-0.503-0.659-0.466c-0.331,0.039-0.568,0.339-0.529,0.67s0.339,0.568,0.67,0.529
					c0.065-0.008,0.127-0.026,0.184-0.052l0.451,0.234c-0.251,0.554-0.433,1.139-0.539,1.744l0.746,0.132
					c0.23-1.306,0.85-2.507,1.792-3.473L260.104,465.465z"/>
				<path id="XMLID_83_" style="fill:#242930;" d="M265.592,463.163c-0.171,0-0.341,0.006-0.51,0.017l-0.074-0.626
					c0.188-0.149,0.296-0.389,0.266-0.645c-0.046-0.393-0.402-0.674-0.795-0.628s-0.674,0.402-0.628,0.795
					c0.03,0.254,0.189,0.461,0.405,0.564l0.073,0.624c-0.714,0.116-1.403,0.332-2.06,0.646l0.327,0.684
					c0.934-0.447,1.942-0.673,2.995-0.673c0.496,0,0.993,0.053,1.475,0.158l0.161-0.741
					C266.693,463.222,266.142,463.163,265.592,463.163z"/>
				<path id="XMLID_82_" style="fill:#242930;" d="M272.194,465.711c0.331-0.04,0.566-0.341,0.525-0.672
					c-0.04-0.331-0.341-0.566-0.672-0.526c-0.309,0.038-0.535,0.304-0.53,0.609l-0.416,0.363c-0.418-0.43-0.89-0.813-1.408-1.139
					l-0.404,0.641c1.134,0.715,2.021,1.726,2.563,2.925l0.69-0.313c-0.251-0.554-0.568-1.072-0.942-1.545l0.402-0.351
					C272.065,465.716,272.129,465.719,272.194,465.711z"/>
				<path id="XMLID_81_" style="fill:#242930;" d="M265.044,473.372c-0.386,0.023-0.775,0.035-1.157,0.035
					c-0.88,0-1.733-0.061-2.478-0.179c-0.39-0.062-0.846-0.155-1.27-0.292c1.046,1.861,3.069,3.125,5.388,3.125
					c2.855,0,5.262-1.916,5.95-4.504c-0.682,0.449-1.505,0.825-2.459,1.123C267.839,473.047,266.464,473.286,265.044,473.372z"/>
				<path id="XMLID_77_" style="fill:#242930;" d="M265.592,464.68c-3.352,0-6.08,2.666-6.08,5.943c0,0.426,0.046,0.849,0.137,1.261
					c0.674,0.483,2.706,0.89,5.348,0.731c2.879-0.173,5.297-0.957,6.672-2.159c-0.005-0.195-0.021-0.39-0.045-0.582
					C271.244,466.913,268.65,464.68,265.592,464.68z M263.432,471.194c-1.02,0-1.85-0.83-1.85-1.85c0-1.02,0.83-1.85,1.85-1.85
					c1.02,0,1.85,0.83,1.85,1.85C265.282,470.365,264.452,471.194,263.432,471.194z M268.17,470.286c-0.75,0-1.36-0.61-1.36-1.36
					s0.61-1.361,1.36-1.361c0.75,0,1.361,0.61,1.361,1.361S268.92,470.286,268.17,470.286z"/>
			</g>
			<path id="XMLID_74_" style="fill:#242930;" d="M281.595,466.547c-0.295-0.116-0.806-0.309-1.382-0.237
				c-0.551,0.069-0.844,0.341-0.844,1.007v0.866h2.228v1.717h-2.228v5.455h-1.932v-5.455h-1.34v-1.717h1.34v-0.888
				c0-1.68,0.895-2.783,2.568-2.783c0.642,0,1.157,0.122,1.59,0.308L281.595,466.547z"/>
			<path id="XMLID_72_" style="fill:#242930;" d="M286.298,469.879c-0.177-0.03-0.358-0.046-0.526-0.046
				c-0.896,0-1.51,0.548-1.51,1.614v3.908h-1.932v-7.172h1.873v0.785c0.451-0.673,1.14-0.977,2.021-0.977
				c0.414,0,0.848,0.128,1.094,0.337L286.298,469.879z"/>
			<path id="XMLID_69_" style="fill:#242930;" d="M293.965,471.757c0,0.222-0.015,0.489-0.037,0.651h-5.085
				c0.207,1.036,0.933,1.488,1.843,1.488c0.622,0,1.295-0.252,1.813-0.688l1.132,1.243c-0.814,0.748-1.85,1.088-3.057,1.088
				c-2.198,0-3.723-1.495-3.723-3.753c0-2.258,1.48-3.797,3.626-3.797C292.544,467.99,293.958,469.522,293.965,471.757z
				 M288.851,471.091h3.175c-0.178-0.918-0.733-1.436-1.562-1.436C289.554,469.655,289.021,470.203,288.851,471.091z"/>
			<path id="XMLID_66_" style="fill:#242930;" d="M301.618,471.757c0,0.222-0.015,0.489-0.037,0.651h-5.085
				c0.207,1.036,0.932,1.488,1.843,1.488c0.622,0,1.295-0.252,1.813-0.688l1.132,1.243c-0.814,0.748-1.85,1.088-3.057,1.088
				c-2.198,0-3.723-1.495-3.723-3.753c0-2.258,1.48-3.797,3.627-3.797C300.197,467.99,301.611,469.522,301.618,471.757z
				 M296.504,471.091h3.175c-0.178-0.918-0.733-1.436-1.562-1.436C297.207,469.655,296.674,470.203,296.504,471.091z"/>
			<path id="XMLID_63_" style="fill:#242930;" d="M309.964,471.764c0,2.154-1.495,3.775-3.471,3.775
				c-0.962,0-1.643-0.378-2.109-0.933v3.708h-1.924v-10.133h1.887v0.792c0.466-0.585,1.155-0.984,2.139-0.984
				C308.469,467.99,309.964,469.61,309.964,471.764z M304.287,471.764c0,1.132,0.747,1.976,1.843,1.976
				c1.14,0,1.85-0.881,1.85-1.976c0-1.095-0.711-1.976-1.85-1.976C305.035,469.788,304.287,470.632,304.287,471.764z"/>
			<path id="XMLID_60_" style="fill:#242930;" d="M313.068,465.836c0,0.696-0.54,1.229-1.236,1.229
				c-0.696,0-1.229-0.533-1.229-1.229c0-0.696,0.533-1.243,1.229-1.243C312.527,464.592,313.068,465.14,313.068,465.836z
				 M312.809,475.354h-1.932v-7.172h1.932V475.354z"/>
			<path id="XMLID_58_" style="fill:#242930;" d="M316.032,470.736l2.702-2.554h2.368l-3.479,3.375l3.501,3.797h-2.376l-2.716-2.901
				v2.901H314.1v-10.658h1.932V470.736z"/>
		</g>
		<g>
			<path style="fill:#242930;" d="M184.412,475.289v-1.055c-0.527,0.718-1.391,1.23-2.387,1.23c-1.846,0-3.149-1.406-3.149-3.706
				c0-2.256,1.289-3.721,3.149-3.721c0.952,0,1.816,0.469,2.387,1.245v-3.765h1.099v9.77H184.412z M184.412,473.37v-3.208
				c-0.395-0.615-1.245-1.143-2.124-1.143c-1.421,0-2.27,1.172-2.27,2.739c0,1.567,0.85,2.724,2.27,2.724
				C183.168,474.483,184.017,473.986,184.412,473.37z"/>
			<path style="fill:#242930;" d="M186.932,471.744c0-2.051,1.465-3.706,3.486-3.706c2.139,0,3.398,1.67,3.398,3.794v0.279h-5.727
				c0.088,1.333,1.025,2.446,2.549,2.446c0.806,0,1.626-0.322,2.182-0.894l0.527,0.718c-0.703,0.703-1.655,1.084-2.812,1.084
				C188.441,475.465,186.932,473.956,186.932,471.744z M190.404,468.947c-1.509,0-2.256,1.274-2.314,2.358h4.643
				C192.718,470.25,192.015,468.947,190.404,468.947z"/>
			<path style="fill:#242930;" d="M194.607,474.351l0.571-0.791c0.469,0.542,1.362,1.011,2.329,1.011c1.084,0,1.67-0.513,1.67-1.216
				c0-1.714-4.38-0.659-4.38-3.281c0-1.098,0.952-2.036,2.636-2.036c1.201,0,2.051,0.454,2.622,1.026l-0.513,0.762
				c-0.424-0.513-1.201-0.894-2.109-0.894c-0.967,0-1.567,0.483-1.567,1.113c0,1.552,4.38,0.527,4.38,3.281
				c0,1.187-0.952,2.138-2.783,2.138C196.306,475.465,195.325,475.113,194.607,474.351z"/>
			<path style="fill:#242930;" d="M201.477,466.471c0-0.41,0.337-0.747,0.732-0.747c0.41,0,0.747,0.337,0.747,0.747
				c0,0.41-0.337,0.732-0.747,0.732C201.814,467.203,201.477,466.881,201.477,466.471z M201.667,475.289v-7.075h1.099v7.075H201.667
				z"/>
			<path style="fill:#242930;" d="M204.582,477.105l0.556-0.82c0.586,0.703,1.289,0.967,2.3,0.967c1.172,0,2.27-0.571,2.27-2.124
				v-1.011c-0.513,0.718-1.377,1.26-2.373,1.26c-1.845,0-3.149-1.377-3.149-3.662c0-2.27,1.289-3.677,3.149-3.677
				c0.952,0,1.802,0.469,2.373,1.245v-1.069h1.098v6.87c0,2.344-1.641,3.076-3.369,3.076
				C206.237,478.16,205.417,477.926,204.582,477.105z M209.709,473.253v-3.091c-0.381-0.615-1.23-1.143-2.109-1.143
				c-1.421,0-2.27,1.128-2.27,2.695c0,1.553,0.849,2.695,2.27,2.695C208.478,474.41,209.328,473.868,209.709,473.253z"/>
			<path style="fill:#242930;" d="M217.413,475.289v-4.629c0-1.245-0.63-1.641-1.582-1.641c-0.864,0-1.685,0.527-2.095,1.099v5.17
				h-1.099v-7.075h1.099v1.025c0.498-0.586,1.464-1.201,2.519-1.201c1.48,0,2.256,0.747,2.256,2.285v4.966H217.413z"/>
			<path style="fill:#242930;" d="M219.932,471.744c0-2.051,1.465-3.706,3.486-3.706c2.139,0,3.398,1.67,3.398,3.794v0.279h-5.727
				c0.088,1.333,1.025,2.446,2.549,2.446c0.806,0,1.626-0.322,2.183-0.894l0.527,0.718c-0.703,0.703-1.655,1.084-2.812,1.084
				C221.441,475.465,219.932,473.956,219.932,471.744z M223.404,468.947c-1.509,0-2.256,1.274-2.314,2.358h4.643
				C225.718,470.25,225.015,468.947,223.404,468.947z"/>
			<path style="fill:#242930;" d="M233.35,475.289v-1.055c-0.527,0.718-1.392,1.23-2.388,1.23c-1.846,0-3.149-1.406-3.149-3.706
				c0-2.256,1.289-3.721,3.149-3.721c0.952,0,1.817,0.469,2.388,1.245v-3.765h1.098v9.77H233.35z M233.35,473.37v-3.208
				c-0.396-0.615-1.245-1.143-2.124-1.143c-1.421,0-2.27,1.172-2.27,2.739c0,1.567,0.849,2.724,2.27,2.724
				C232.105,474.483,232.954,473.986,233.35,473.37z"/>
			<path style="fill:#242930;" d="M239.692,475.289v-9.77h1.098v3.765c0.572-0.776,1.421-1.245,2.388-1.245
				c1.845,0,3.149,1.465,3.149,3.721c0,2.299-1.304,3.706-3.149,3.706c-0.996,0-1.86-0.513-2.388-1.23v1.055H239.692z
				 M242.9,474.483c1.436,0,2.286-1.157,2.286-2.724c0-1.568-0.85-2.739-2.286-2.739c-0.864,0-1.728,0.527-2.109,1.143v3.208
				C241.171,473.986,242.036,474.483,242.9,474.483z"/>
			<path style="fill:#242930;" d="M247.529,477.061c0.161,0.073,0.425,0.117,0.601,0.117c0.483,0,0.805-0.161,1.055-0.747
				l0.469-1.069l-2.959-7.148h1.187l2.358,5.8l2.344-5.8h1.201l-3.545,8.51c-0.425,1.025-1.143,1.421-2.08,1.435
				c-0.234,0-0.601-0.044-0.805-0.103L247.529,477.061z"/>
		</g>
	</g>
</g> -->
</svg>